<?xml version="1.0" standalone="no"?>
<!DOCTYPE svg PUBLIC "-//W3C//DTD SVG 20010904//EN"
 "http://www.w3.org/TR/2001/REC-SVG-20010904/DTD/svg10.dtd">
<svg version="1.0" xmlns="http://www.w3.org/2000/svg"
 width="500.000000pt" height="499.000000pt" viewBox="0 0 500.000000 499.000000"
 preserveAspectRatio="xMidYMid meet">

<g transform="translate(0.000000,499.000000) scale(0.100000,-0.100000)"
fill="#000000" stroke="none">
<path d="M2335 4441 c-53 -25 -93 -65 -116 -115 -20 -45 -25 -96 -9 -96 6 0
10 -5 10 -11 0 -5 -3 -8 -7 -6 -5 2 -21 -2 -38 -10 -30 -14 -30 -14 -3 -8 24
5 30 0 47 -33 37 -72 124 -132 193 -132 27 0 111 31 130 47 10 9 15 20 12 25
-3 4 0 7 8 6 13 -3 68 97 65 117 -2 12 14 11 116 -5 l77 -13 0 -44 c0 -24 7
-60 15 -80 16 -38 96 -122 118 -124 6 0 21 -3 32 -6 40 -12 101 -5 140 15 79
40 115 101 115 194 0 54 -4 69 -32 110 -45 65 -102 93 -185 91 -81 -2 -140
-39 -177 -112 -17 -31 -18 -31 -69 -25 -83 11 -148 28 -149 39 -1 28 -34 94
-62 123 -34 36 -92 66 -113 57 -8 -2 -11 0 -8 5 11 17 -68 11 -110 -9z m146
-81 c16 -7 29 -19 29 -26 0 -8 4 -14 9 -14 5 0 11 -9 14 -21 7 -27 -20 -37
-38 -13 -13 18 -13 18 -12 -1 1 -14 11 -22 32 -25 31 -6 32 -7 21 -53 -5 -22
-4 -27 6 -22 7 4 -3 -6 -22 -23 -37 -33 -55 -39 -65 -21 -5 7 -13 5 -24 -5
-11 -10 -28 -13 -58 -9 -57 7 -93 57 -93 127 0 41 5 53 34 82 19 19 41 34 50
34 9 0 16 4 16 9 0 10 56 -1 101 -19z m523 -111 c-2 -4 3 -9 11 -13 12 -4 15
-24 15 -85 0 -44 3 -82 8 -84 4 -3 5 34 2 83 l-5 88 31 11 c44 16 56 14 82
-14 20 -21 23 -32 20 -101 l-3 -76 -62 0 c-35 1 -94 1 -133 1 l-70 1 0 85 c0
50 4 85 10 85 6 0 10 -28 10 -64 0 -36 3 -67 8 -69 4 -3 6 33 4 79 l-3 85 39
-3 c22 -2 38 -6 36 -9z"/>
<path d="M2372 4306 c-13 -44 -12 -48 7 -37 7 5 11 22 9 42 l-4 34 -12 -39z"/>
<path d="M2422 4294 c-2 -56 -7 -64 -38 -64 -13 0 -24 -5 -24 -11 0 -5 4 -8 9
-5 4 3 6 -6 3 -19 -2 -15 0 -25 7 -25 6 0 11 -8 11 -17 0 -14 2 -15 9 -4 5 7
6 22 4 32 -3 12 6 30 27 50 17 18 28 35 23 38 -4 3 -9 17 -11 31 -5 44 -18 41
-20 -6z"/>
<path d="M2470 4320 c0 -5 5 -10 11 -10 5 0 7 5 4 10 -3 6 -8 10 -11 10 -2 0
-4 -4 -4 -10z"/>
<path d="M2323 4303 c-3 -10 -8 -22 -10 -28 -3 -5 3 -1 11 9 16 20 21 36 11
36 -3 0 -8 -8 -12 -17z"/>
<path d="M2315 4220 c3 -5 8 -10 11 -10 2 0 4 5 4 10 0 6 -5 10 -11 10 -5 0
-7 -4 -4 -10z"/>
<path d="M2487 4213 c3 -8 -3 -23 -13 -34 -15 -17 -15 -19 -2 -14 22 9 41 62
23 62 -7 0 -11 -7 -8 -14z"/>
<path d="M2450 4210 c-9 -6 -10 -10 -3 -10 6 0 15 5 18 10 8 12 4 12 -15 0z"/>
<path d="M3065 4080 c-3 -6 1 -7 9 -4 18 7 21 14 7 14 -6 0 -13 -4 -16 -10z"/>
<path d="M1757 4243 c-15 -2 -25 -9 -22 -14 3 -5 0 -6 -8 -3 -8 3 -21 -2 -30
-10 -8 -8 -17 -12 -21 -9 -3 3 -8 -2 -12 -11 -4 -9 -20 -30 -36 -47 -18 -18
-28 -35 -24 -45 3 -8 2 -12 -4 -9 -6 4 -10 -8 -11 -27 -2 -63 3 -93 23 -128
10 -19 17 -27 14 -17 -3 10 -2 15 4 12 19 -12 9 -31 -47 -88 -31 -31 -54 -60
-51 -63 3 -3 27 20 53 51 26 30 50 53 53 50 3 -3 13 2 22 10 14 13 17 13 17 0
0 -8 -4 -12 -9 -9 -14 9 -9 -13 7 -26 9 -7 26 -10 42 -6 20 5 24 4 13 -3 -20
-13 -13 -17 43 -25 31 -5 47 -4 47 4 0 6 10 8 24 4 33 -8 123 56 110 78 -3 4
2 8 10 8 15 0 40 66 30 82 -3 4 0 8 7 8 16 0 3 77 -19 110 -9 14 -17 29 -17
34 0 5 -9 12 -20 17 -13 5 -15 8 -5 9 12 0 11 3 -3 11 -9 5 -22 7 -29 3 -7 -4
-8 -3 -4 5 14 21 -90 53 -147 44z m-120 -108 c0 -8 -4 -12 -9 -9 -5 3 -6 10
-3 15 9 13 12 11 12 -6z m109 -11 c12 -15 94 -20 94 -5 0 5 -5 12 -10 14 -6 3
-5 4 2 3 7 -2 21 1 31 6 13 6 19 4 24 -7 5 -14 8 -14 15 -3 7 9 8 8 4 -6 -4
-11 -2 -23 5 -26 7 -5 8 -17 4 -30 -6 -18 -9 -20 -16 -9 -7 12 -9 11 -10 -1
-1 -8 -1 -18 0 -22 0 -5 -2 -7 -7 -7 -20 3 -32 -2 -32 -15 0 -8 -5 -18 -12
-22 -8 -5 -9 -1 -5 12 7 18 7 18 -8 0 -20 -27 -19 -36 5 -36 11 0 20 -5 20
-11 0 -5 4 -8 9 -4 8 4 5 -44 -2 -52 -2 -1 -20 2 -42 7 -22 5 -55 7 -72 4 -22
-4 -33 -2 -33 5 0 7 5 9 12 5 7 -4 8 -3 4 5 -5 7 1 20 13 30 12 10 21 23 21
29 0 6 4 12 10 14 5 2 -2 8 -15 15 -15 6 -22 7 -19 1 4 -6 -1 -8 -11 -6 -10 1
-20 10 -22 18 -4 13 -3 13 6 0 6 -8 11 -10 11 -5 0 14 -20 43 -20 30 0 -5 -5
-2 -11 8 -5 9 -7 22 -4 27 3 6 1 10 -4 10 -6 0 -11 5 -11 11 0 5 5 7 12 3 7
-5 9 -2 5 8 -3 9 -3 19 0 22 9 9 46 -4 59 -20z m191 4 c-3 -8 -6 -5 -6 6 -1
11 2 17 5 13 3 -3 4 -12 1 -19z m-60 -284 c-3 -3 -12 -4 -19 -1 -8 3 -5 6 6 6
11 1 17 -2 13 -5z"/>
<path d="M2067 4168 c-32 -11 -56 -22 -53 -25 4 -5 126 37 126 43 0 6 -12 3
-73 -18z"/>
<path d="M3299 3927 c-55 -37 -79 -81 -79 -148 0 -78 42 -136 117 -161 47 -16
56 -16 101 -3 51 15 112 70 112 100 0 12 -8 12 -52 -1 -66 -20 -127 -12 -158
21 -41 43 -23 140 37 200 25 25 -38 19 -78 -8z"/>
<path d="M3781 3773 c-2 -101 -58 -256 -134 -375 -34 -54 -163 -198 -176 -198
-4 0 -24 23 -46 51 -86 114 -215 215 -372 293 -114 57 -298 107 -386 105 -41
-1 -41 -1 19 -14 152 -34 307 -136 402 -265 257 -350 123 -848 -278 -1035 -60
-28 -55 -27 65 6 328 89 622 337 807 679 47 87 103 246 124 350 20 103 15 319
-9 390 -15 43 -16 44 -16 13z"/>
<path d="M1334 3738 c-2 -4 4 -11 13 -17 10 -5 14 -13 10 -17 -5 -5 -12 -3
-16 5 -10 15 -61 22 -58 8 1 -6 -6 -13 -17 -15 -13 -3 -16 0 -11 9 5 8 4 10
-4 5 -6 -4 -9 -12 -6 -17 4 -5 1 -9 -4 -9 -16 0 -51 -32 -45 -42 3 -5 11 -6
17 -2 7 3 -1 -6 -17 -21 -25 -23 -30 -36 -31 -79 -3 -73 3 -96 23 -88 15 5 15
4 2 -12 -14 -17 -13 -18 17 -12 18 4 34 3 38 -3 3 -7 0 -8 -9 -5 -11 4 -16 0
-16 -11 0 -10 -5 -13 -12 -9 -7 4 -8 3 -4 -5 4 -6 11 -9 16 -6 5 3 11 -3 15
-14 4 -15 18 -21 58 -25 46 -5 98 -3 105 4 1 1 7 3 12 4 6 0 10 4 10 9 0 29
-1 31 -8 22 -13 -20 -61 -16 -72 5 -8 15 -19 19 -43 16 -36 -4 -59 18 -53 51
3 12 -1 20 -10 20 -10 0 -11 -4 -3 -13 8 -9 5 -11 -10 -7 -22 6 -26 14 -13 27
10 11 9 65 -2 59 -13 -9 5 40 21 57 14 13 14 13 4 -7 -14 -27 -14 -33 0 -33 5
0 7 5 4 10 -3 6 -1 10 4 10 6 0 11 10 11 23 0 13 5 28 11 34 8 8 8 13 0 17
-20 13 -11 23 14 18 26 -5 33 -18 13 -24 -9 -3 -9 -6 0 -12 7 -4 12 -2 12 4 0
6 5 8 10 5 6 -3 10 -1 10 5 0 6 5 8 10 5 6 -3 10 -1 10 4 0 6 -7 11 -15 11 -8
0 -15 5 -15 11 0 11 37 3 58 -13 9 -8 12 -6 12 7 0 11 5 15 15 12 8 -4 17 -2
20 3 10 15 25 12 19 -4 -3 -8 -14 -13 -25 -11 -10 2 -19 0 -19 -6 0 -5 11 -9
24 -9 20 0 23 -4 20 -22 -2 -13 -2 -18 2 -11 9 19 46 -20 38 -41 -5 -12 -2
-15 10 -10 11 4 19 -2 26 -21 5 -14 14 -23 20 -20 5 3 10 -1 10 -10 0 -9 -5
-13 -10 -10 -6 4 -18 1 -26 -6 -11 -9 -18 -9 -26 -1 -7 7 -19 12 -27 12 -9 0
-3 -8 14 -19 31 -19 60 -17 48 3 -4 6 1 5 10 -3 18 -14 22 -22 10 -20 -22 4
-33 -3 -33 -17 0 -14 -2 -15 -17 -3 -16 12 -17 12 -6 -1 9 -13 6 -22 -18 -49
-34 -39 -34 -41 -13 -41 9 0 12 5 8 13 -5 8 -2 8 9 -2 15 -12 17 -10 17 16 0
16 3 32 6 35 8 9 44 -3 44 -15 0 -6 -3 -7 -7 -4 -3 4 -13 -2 -21 -14 -8 -11
-11 -23 -8 -26 3 -4 6 -1 6 6 0 7 5 9 12 5 7 -4 8 -3 4 4 -4 7 -1 12 8 12 9 0
16 9 16 20 0 11 4 20 9 20 5 0 7 9 4 20 -4 13 1 26 12 34 13 9 15 15 7 20 -7
4 -12 13 -12 19 0 7 4 6 10 -3 15 -23 12 -6 -4 25 -8 15 -12 34 -9 43 5 11 3
13 -7 7 -8 -5 -11 -3 -8 6 2 7 -14 29 -38 49 -34 30 -39 38 -26 46 12 8 12 10
-4 11 -47 2 -74 8 -74 15 0 10 -60 7 -66 -4z m166 -111 c0 -18 -2 -19 -10 -7
-13 20 -13 43 0 35 6 -3 10 -16 10 -28z m-306 -33 c-6 -2 -9 -19 -8 -37 l3
-32 -8 30 c-8 34 -5 45 12 44 8 0 8 -2 1 -5z m6 -94 c0 -4 -6 -10 -14 -13 -10
-4 -12 0 -9 14 5 18 23 18 23 -1z m134 -108 c2 -4 1 -14 -4 -22 -7 -11 -11
-11 -24 -1 -9 7 -25 11 -36 8 -12 -3 -20 0 -20 7 0 14 75 21 84 8z"/>
<path d="M1510 3675 c13 -14 26 -25 28 -25 3 0 -5 11 -18 25 -13 14 -26 25
-28 25 -3 0 5 -11 18 -25z"/>
<path d="M1370 3640 c0 -6 5 -8 10 -5 6 3 10 2 10 -4 0 -5 -6 -12 -12 -14 -8
-3 -5 -6 5 -6 12 -1 17 5 15 16 -3 19 -28 31 -28 13z"/>
<path d="M2010 3570 c6 -11 15 -20 19 -20 14 0 41 -77 41 -116 0 -49 -14 -70
-54 -84 -34 -11 -110 -3 -159 16 -17 6 -17 4 3 -35 27 -55 90 -85 160 -79 164
16 203 245 54 318 -54 27 -78 27 -64 0z"/>
<path d="M1470 3560 c-8 -5 -10 -10 -5 -10 6 0 17 5 25 10 8 5 11 10 5 10 -5
0 -17 -5 -25 -10z"/>
<path d="M1151 3544 c0 -11 3 -14 6 -6 3 7 2 16 -1 19 -3 4 -6 -2 -5 -13z"/>
<path d="M1378 3523 c6 -2 18 -2 25 0 6 3 1 5 -13 5 -14 0 -19 -2 -12 -5z"/>
<path d="M1290 3486 c0 -2 8 -10 18 -17 15 -13 16 -12 3 4 -13 16 -21 21 -21
13z"/>
<path d="M1429 3475 c-6 -26 -1 -49 11 -53 9 -2 11 0 5 5 -6 4 -10 18 -9 31 1
19 -4 31 -7 17z"/>
<path d="M1367 3448 c4 -7 6 -22 5 -34 -2 -13 3 -21 12 -21 12 0 13 4 5 13 -7
9 -7 19 1 33 9 18 8 21 -10 21 -14 0 -19 -4 -13 -12z"/>
<path d="M1450 3371 c-16 -6 -25 -31 -12 -31 5 0 16 6 27 13 20 15 9 28 -15
18z"/>
<path d="M1355 3340 l-50 -7 58 -1 c32 -1 57 2 57 8 0 6 -3 9 -7 8 -5 0 -30
-4 -58 -8z"/>
<path d="M1276 3323 c-6 -14 -5 -15 5 -6 7 7 10 15 7 18 -3 3 -9 -2 -12 -12z"/>
<path d="M1252 3214 c-1 -13 0 -24 2 -24 7 0 14 40 7 44 -4 3 -8 -6 -9 -20z"/>
<path d="M1727 3110 c-27 -123 -30 -188 -13 -295 17 -111 60 -231 114 -315 79
-122 232 -248 362 -299 50 -19 190 -51 225 -50 28 0 26 2 -21 24 -28 14 -73
49 -101 78 -54 56 -161 212 -181 262 -39 98 -55 259 -32 320 5 14 12 43 15 63
4 35 0 41 -62 99 -60 58 -93 72 -79 36 3 -8 2 -12 -3 -8 -5 3 -25 -13 -44 -35
-38 -45 -44 -47 -63 -22 -20 24 -64 111 -64 125 0 7 -9 30 -19 52 l-18 40 -16
-75z"/>
<path d="M1236 3161 c-4 -5 -2 -12 3 -15 5 -4 12 -2 15 3 4 5 2 12 -3 15 -5 4
-12 2 -15 -3z"/>
<path d="M1180 3140 c0 -5 -7 -10 -17 -10 -32 0 -4 -11 38 -15 l44 -4 -25 19
c-28 22 -40 25 -40 10z"/>
<path d="M1101 3090 c-14 -19 -28 -27 -38 -23 -12 5 -14 3 -8 -6 4 -8 2 -16
-4 -21 -9 -5 -7 -15 7 -39 12 -20 21 -28 24 -19 3 7 -1 19 -9 26 -15 16 -17
32 -3 32 6 0 10 -5 10 -11 0 -5 5 -7 11 -3 8 4 8 8 1 13 -7 4 0 19 18 38 17
18 26 34 22 37 -4 2 -18 -8 -31 -24z"/>
<path d="M1285 3110 c3 -5 10 -10 16 -10 5 0 9 5 9 10 0 6 -7 10 -16 10 -8 0
-12 -4 -9 -10z"/>
<path d="M1339 3118 c-9 -27 -2 -58 14 -62 11 -2 16 -9 12 -15 -9 -15 -42 -14
-48 2 -4 9 -6 9 -6 -1 -1 -7 -6 -10 -13 -6 -7 4 -8 3 -4 -4 4 -7 2 -12 -5 -12
-7 0 -9 -3 -6 -6 4 -4 12 -2 20 4 7 7 18 7 27 2 8 -5 24 -3 41 5 23 13 28 13
33 0 8 -22 25 -18 19 5 -5 19 -36 52 -32 34 5 -26 -3 -26 -20 0 -11 16 -17 35
-14 42 3 8 0 14 -6 14 -6 0 -11 -1 -12 -2z"/>
<path d="M1185 3100 c-3 -5 -12 -7 -19 -4 -8 3 -23 -7 -35 -22 -22 -28 -21
-45 2 -26 8 7 17 9 20 5 4 -3 7 2 7 11 0 14 6 17 24 14 19 -4 22 -1 18 14 -5
20 -8 22 -17 8z"/>
<path d="M1237 3085 c-17 -12 -15 -14 28 -20 25 -4 49 -5 52 -1 4 3 -6 6 -20
6 -19 0 -25 4 -21 15 8 19 -15 19 -39 0z"/>
<path d="M2489 3080 c-33 -10 -81 -58 -73 -72 4 -6 3 -8 -3 -5 -6 4 -14 0 -17
-9 -9 -23 -7 -56 2 -50 5 3 6 -8 4 -25 -3 -21 -1 -29 9 -27 7 2 13 -4 14 -12
0 -10 8 -14 24 -12 13 2 21 0 18 -5 -21 -34 94 -53 118 -19 7 9 14 13 17 10 3
-3 15 8 27 24 34 48 25 158 -10 136 -12 -6 -12 -5 -1 8 11 14 9 19 -14 37 -16
13 -35 19 -46 16 -10 -4 -18 -2 -18 4 0 12 -14 13 -51 1z"/>
<path d="M1412 2960 c1 -64 0 -70 -15 -70 -7 0 -18 -9 -25 -20 -7 -12 -18 -18
-24 -14 -7 4 -8 3 -4 -4 12 -19 33 -14 40 11 4 15 8 18 14 10 5 -8 14 -1 27
22 14 28 16 40 7 58 -6 12 -13 29 -16 37 -3 8 -5 -5 -4 -30z"/>
<path d="M1235 2971 c-3 -5 -1 -12 5 -16 5 -3 10 1 10 9 0 18 -6 21 -15 7z"/>
<path d="M1392 2955 c0 -16 2 -22 5 -12 2 9 2 23 0 30 -3 6 -5 -1 -5 -18z"/>
<path d="M1216 2931 c-4 -5 -2 -12 3 -15 5 -4 12 -2 15 3 4 5 2 12 -3 15 -5 4
-12 2 -15 -3z"/>
<path d="M1118 2903 c7 -3 16 -2 19 1 4 3 -2 6 -13 5 -11 0 -14 -3 -6 -6z"/>
<path d="M1195 2900 c-3 -5 -1 -10 4 -10 6 0 11 5 11 10 0 6 -2 10 -4 10 -3 0
-8 -4 -11 -10z"/>
<path d="M1150 2871 c0 -5 7 -12 16 -15 14 -5 15 -4 4 9 -14 17 -20 19 -20 6z"/>
<path d="M1125 2850 c3 -5 11 -10 16 -10 6 0 7 5 4 10 -3 6 -11 10 -16 10 -6
0 -7 -4 -4 -10z"/>
<path d="M1320 2837 c0 -18 -16 -24 -22 -8 -1 5 -12 3 -23 -6 -16 -13 -17 -15
-2 -10 11 4 17 1 17 -9 0 -8 -3 -13 -7 -11 -37 19 -116 30 -106 13 3 -4 -4 -5
-16 -1 -13 4 -21 2 -21 -5 0 -7 17 -9 48 -6 27 2 55 0 63 -5 9 -6 -2 -9 -33
-9 -36 0 -48 -4 -48 -15 0 -13 14 -15 75 -14 41 1 75 6 75 11 0 5 3 7 8 5 4
-3 17 11 30 30 18 28 19 34 7 29 -9 -3 -19 -6 -21 -6 -2 0 -4 -9 -4 -20 0 -11
-4 -20 -9 -20 -11 0 -9 19 3 38 5 8 4 18 -3 25 -8 8 -11 6 -11 -6z"/>
<path d="M1033 2667 c3 -8 9 -33 12 -54 15 -82 68 -254 87 -279 4 -6 36 -19
70 -29 35 -10 83 -24 108 -32 101 -32 356 -106 375 -108 11 -1 45 -14 76 -28
56 -24 117 -43 132 -39 4 1 7 -2 7 -7 0 -5 23 -15 50 -22 28 -7 50 -16 50 -21
0 -4 5 -8 12 -8 6 0 20 -7 30 -17 11 -9 18 -11 18 -5 0 7 5 12 11 12 6 0 9 -6
6 -13 -3 -7 4 -19 14 -25 13 -8 19 -9 19 -1 0 5 6 7 13 3 7 -4 9 -3 4 2 -5 5
-14 9 -20 9 -7 0 -12 5 -12 10 0 6 -13 22 -28 37 -15 15 -27 26 -27 24 0 -1
-23 20 -50 46 -29 27 -56 46 -62 42 -6 -4 -8 -3 -5 3 4 6 -29 38 -73 72 -44
34 -80 60 -80 57 0 -3 -12 6 -26 19 -14 13 -35 27 -45 30 -11 4 -19 11 -19 16
0 5 -4 9 -10 9 -5 0 -29 13 -52 29 -24 16 -46 27 -50 25 -5 -3 -8 -1 -8 4 0
20 -306 173 -445 222 -27 10 -59 21 -69 26 -15 6 -18 4 -13 -9z m882 -527 c3
-5 1 -10 -4 -10 -6 0 -11 5 -11 10 0 6 2 10 4 10 3 0 8 -4 11 -10z"/>
<path d="M3855 2636 c-281 -117 -457 -218 -697 -399 -118 -89 -170 -137 -135
-124 11 4 16 3 12 -4 -4 -6 -13 -8 -21 -5 -17 6 -94 -60 -94 -80 0 -8 -5 -13
-11 -11 -6 1 -13 -6 -14 -17 -3 -17 -2 -16 19 3 12 12 26 18 29 14 4 -3 7 -1
7 6 0 7 4 10 8 7 11 -6 144 58 136 66 -3 4 2 7 12 7 37 1 54 4 54 11 0 3 9 6
19 7 10 1 52 13 92 27 41 13 106 34 144 45 39 12 99 30 135 41 36 11 112 33
170 51 163 48 155 44 178 107 51 144 85 293 66 291 -5 -1 -54 -20 -109 -43z"/>
<path d="M2140 1972 c0 -5 7 -15 15 -22 8 -7 15 -8 15 -2 0 5 -7 15 -15 22 -8
7 -15 8 -15 2z"/>
<path d="M2839 1953 c-13 -16 -12 -17 4 -4 16 13 21 21 13 21 -2 0 -10 -8 -17
-17z"/>
<path d="M2117 1805 c-50 -49 -76 -67 -111 -76 -64 -16 -65 -25 -3 -32 81 -10
205 -45 277 -78 68 -32 163 -97 192 -133 25 -30 22 -13 -8 47 -45 89 -112 182
-177 243 -112 105 -96 102 -170 29z"/>
<path d="M2774 1821 c-74 -59 -174 -184 -216 -271 -9 -19 -22 -46 -29 -60 -9
-19 0 -13 40 22 100 90 251 156 406 177 74 11 110 21 72 21 -9 0 -17 4 -17 9
0 5 -14 13 -32 16 -20 5 -55 30 -92 66 -32 33 -65 59 -71 59 -7 0 -34 -17 -61
-39z"/>
<path d="M1685 1710 c-4 -6 3 -10 14 -10 25 0 27 6 6 13 -8 4 -17 2 -20 -3z"/>
<path d="M1905 1710 c-17 -8 -16 -8 8 -7 15 1 27 5 27 9 0 10 -9 9 -35 -2z"/>
<path d="M3076 1711 c-3 -5 5 -8 18 -7 13 0 22 4 19 9 -6 10 -31 9 -37 -2z"/>
<path d="M1818 1703 c12 -2 30 -2 40 0 9 3 -1 5 -23 4 -22 0 -30 -2 -17 -4z"/>
<path d="M3198 1703 c7 -3 16 -2 19 1 4 3 -2 6 -13 5 -11 0 -14 -3 -6 -6z"/>
<path d="M3298 1703 c6 -2 18 -2 25 0 6 3 1 5 -13 5 -14 0 -19 -2 -12 -5z"/>
<path d="M2121 1344 c0 -11 3 -14 6 -6 3 7 2 16 -1 19 -3 4 -6 -2 -5 -13z"/>
<path d="M2253 1345 c-3 -9 -3 -19 1 -22 3 -4 6 1 6 10 0 8 6 18 13 20 9 4 9
6 -1 6 -7 1 -15 -6 -19 -14z"/>
<path d="M2451 1344 c0 -11 3 -14 6 -6 3 7 2 16 -1 19 -3 4 -6 -2 -5 -13z"/>
<path d="M2795 1350 c-3 -6 1 -7 9 -4 18 7 21 14 7 14 -6 0 -13 -4 -16 -10z"/>
<path d="M3213 1305 c0 -33 2 -45 4 -27 2 18 2 45 0 60 -2 15 -4 0 -4 -33z"/>
<path d="M3310 1344 c0 -8 5 -12 10 -9 6 4 8 11 5 16 -9 14 -15 11 -15 -7z"/>
<path d="M3366 1333 c7 -39 14 -42 14 -5 0 18 -4 32 -9 32 -5 0 -7 -12 -5 -27z"/>
<path d="M3731 1343 c7 -12 15 -20 18 -17 3 2 -3 12 -13 22 -17 16 -18 16 -5
-5z"/>
<path d="M1297 1343 c-4 -3 -7 -16 -6 -27 0 -19 1 -19 10 3 10 24 8 36 -4 24z"/>
<path d="M3840 1330 c0 -5 5 -10 11 -10 5 0 7 5 4 10 -3 6 -8 10 -11 10 -2 0
-4 -4 -4 -10z"/>
<path d="M3130 1309 c0 -11 5 -17 10 -14 6 3 10 13 10 21 0 8 -4 14 -10 14 -5
0 -10 -9 -10 -21z"/>
<path d="M3441 1314 c0 -11 3 -14 6 -6 3 7 2 16 -1 19 -3 4 -6 -2 -5 -13z"/>
<path d="M1982 1290 c0 -19 2 -27 5 -17 2 9 2 25 0 35 -3 9 -5 1 -5 -18z"/>
<path d="M1882 1290 c0 -14 2 -19 5 -12 2 6 2 18 0 25 -3 6 -5 1 -5 -13z"/>
<path d="M2782 1290 c0 -14 2 -19 5 -12 2 6 2 18 0 25 -3 6 -5 1 -5 -13z"/>
<path d="M3080 1300 c0 -5 5 -10 11 -10 5 0 7 5 4 10 -3 6 -8 10 -11 10 -2 0
-4 -4 -4 -10z"/>
<path d="M3285 1299 c-4 -6 -5 -12 -2 -15 2 -3 7 2 10 11 7 17 1 20 -8 4z"/>
<path d="M1921 1284 c0 -11 3 -14 6 -6 3 7 2 16 -1 19 -3 4 -6 -2 -5 -13z"/>
<path d="M3741 1284 c0 -11 3 -14 6 -6 3 7 2 16 -1 19 -3 4 -6 -2 -5 -13z"/>
<path d="M3795 1279 c-4 -6 -5 -12 -2 -15 2 -3 7 2 10 11 7 17 1 20 -8 4z"/>
<path d="M4001 1264 c0 -11 3 -14 6 -6 3 7 2 16 -1 19 -3 4 -6 -2 -5 -13z"/>
<path d="M2300 1261 c0 -6 4 -13 10 -16 6 -3 7 1 4 9 -7 18 -14 21 -14 7z"/>
<path d="M3867 1249 c4 -13 8 -18 11 -10 2 7 -1 18 -6 23 -8 8 -9 4 -5 -13z"/>
<path d="M946 1243 c-6 -14 -5 -15 5 -6 7 7 10 15 7 18 -3 3 -9 -2 -12 -12z"/>
<path d="M1881 1244 c0 -11 3 -14 6 -6 3 7 2 16 -1 19 -3 4 -6 -2 -5 -13z"/>
<path d="M1101 974 l-1 -121 53 -1 c28 -1 59 3 67 8 11 8 8 9 -12 4 -18 -4
-28 -2 -28 5 0 6 -3 10 -7 10 -5 -1 -21 -1 -36 0 -25 1 -26 3 -17 21 6 11 8
26 4 32 -10 16 -12 78 -2 84 4 3 8 10 8 15 0 6 -4 7 -10 4 -5 -3 -10 1 -10 10
0 9 4 14 8 11 5 -3 9 1 9 9 0 8 -4 12 -8 9 -4 -2 -10 2 -12 8 -3 7 -6 -41 -6
-108z"/>
<path d="M1372 1065 c0 -16 2 -22 5 -12 2 9 2 23 0 30 -3 6 -5 -1 -5 -18z"/>
<path d="M1773 1055 c0 -22 2 -30 4 -17 2 12 2 30 0 40 -3 9 -5 -1 -4 -23z"/>
<path d="M2040 1078 c-12 -8 -11 -9 4 -4 13 5 17 2 12 -9 -3 -8 -1 -15 4 -15
12 0 13 27 2 34 -4 2 -14 0 -22 -6z"/>
<path d="M2986 1082 c-4 -7 -5 -12 -1 -12 3 0 1 -10 -6 -21 -17 -33 -29 -79
-19 -79 4 0 11 11 14 25 4 14 11 25 16 25 5 0 7 7 4 15 -5 13 -2 14 22 5 29
-10 29 -10 8 7 -12 10 -24 25 -26 33 -3 10 -6 11 -12 2z"/>
<path d="M3106 1075 c4 -8 8 -15 10 -15 2 0 4 7 4 15 0 8 -4 15 -10 15 -5 0
-7 -7 -4 -15z"/>
<path d="M3575 1081 c-6 -11 9 -23 19 -14 9 9 7 23 -3 23 -6 0 -12 -4 -16 -9z"/>
<path d="M3982 1070 c0 -14 2 -19 5 -12 2 6 2 18 0 25 -3 6 -5 1 -5 -13z"/>
<path d="M1397 1073 c-12 -11 -7 -24 6 -17 8 5 8 2 -2 -9 -12 -15 -11 -17 3
-17 11 0 14 -5 10 -12 -4 -6 -3 -8 4 -4 8 4 8 15 0 36 -11 33 -11 33 -21 23z"/>
<path d="M1646 1067 c3 -10 9 -15 12 -12 3 3 0 11 -7 18 -10 9 -11 8 -5 -6z"/>
<path d="M1874 1065 c3 -8 0 -15 -6 -15 -6 0 -8 -3 -5 -6 9 -9 38 16 31 27 -9
15 -26 10 -20 -6z"/>
<path d="M2514 1069 c-4 -6 1 -9 13 -7 11 2 27 -3 36 -10 12 -11 17 -11 23 0
4 7 4 10 -1 6 -4 -4 -14 -1 -22 7 -17 18 -39 19 -49 4z"/>
<path d="M2681 998 c0 -49 2 -88 7 -88 4 0 6 28 4 62 -5 107 -9 117 -11 26z"/>
<path d="M3775 1072 c-21 -7 -33 -52 -14 -52 5 0 8 4 4 9 -3 6 5 19 17 30 12
12 20 21 17 20 -2 -1 -13 -4 -24 -7z"/>
<path d="M1223 1055 c0 -7 6 -11 14 -8 7 3 13 6 13 8 0 2 -6 5 -13 8 -8 3 -14
-1 -14 -8z"/>
<path d="M1568 1063 c12 -2 30 -2 40 0 9 3 -1 5 -23 4 -22 0 -30 -2 -17 -4z"/>
<path d="M2225 1060 c3 -5 8 -10 11 -10 2 0 4 5 4 10 0 6 -5 10 -11 10 -5 0
-7 -4 -4 -10z"/>
<path d="M3251 1047 c-7 -13 -13 -39 -14 -58 -2 -22 -7 -33 -15 -31 -7 1 -12
-3 -11 -10 2 -7 0 -23 -5 -35 -4 -13 -3 -30 3 -40 9 -16 10 -15 7 7 -1 14 5
39 15 57 10 18 20 47 23 65 2 18 7 41 11 51 10 25 0 21 -14 -6z"/>
<path d="M3545 1060 c-4 -6 -11 -7 -17 -4 -7 5 -8 2 -3 -6 4 -7 2 -16 -6 -21
-14 -8 -21 -109 -7 -109 14 0 20 61 6 77 -11 15 -11 16 5 10 11 -4 16 -3 12 3
-3 5 2 21 11 35 9 14 14 25 11 25 -3 0 -9 -5 -12 -10z"/>
<path d="M3865 1050 c10 -11 20 -20 22 -20 2 0 -1 9 -7 20 -6 11 -16 20 -22
20 -6 0 -3 -9 7 -20z"/>
<path d="M4045 1060 c3 -5 8 -10 11 -10 2 0 4 5 4 10 0 6 -5 10 -11 10 -5 0
-7 -4 -4 -10z"/>
<path d="M2022 1055 c4 -4 3 -14 -3 -21 -12 -15 -19 -74 -9 -74 13 0 28 90 16
97 -6 3 -8 3 -4 -2z"/>
<path d="M2328 1035 c-4 -20 -2 -23 8 -14 7 6 10 17 7 25 -7 20 -10 18 -15
-11z"/>
<path d="M2460 1049 c0 -5 -5 -7 -11 -3 -7 4 -10 1 -7 -6 2 -8 11 -16 19 -18
8 -3 11 -1 7 3 -4 5 -3 14 3 22 9 9 8 13 0 13 -6 0 -11 -5 -11 -11z"/>
<path d="M3652 1033 c7 -16 16 -34 21 -40 6 -9 5 -13 -2 -13 -6 0 -11 -8 -11
-17 0 -16 1 -16 17 -1 15 16 15 20 -3 58 -21 44 -40 56 -22 13z"/>
<path d="M1231 1021 c-8 -15 -8 -22 1 -27 7 -4 10 -4 6 1 -4 4 -3 14 4 22 6 7
8 16 5 19 -3 3 -10 -3 -16 -15z"/>
<path d="M1545 1030 c-3 -5 -1 -10 4 -10 6 0 11 5 11 10 0 6 -2 10 -4 10 -3 0
-8 -4 -11 -10z"/>
<path d="M1666 1025 c-3 -8 0 -15 7 -15 7 -1 1 -10 -12 -21 -13 -11 -21 -22
-17 -26 8 -8 39 35 43 59 3 22 -13 24 -21 3z"/>
<path d="M2062 1016 c2 -19 5 -22 15 -14 10 8 10 14 2 24 -16 20 -19 18 -17
-10z"/>
<path d="M2225 1030 c3 -5 8 -10 11 -10 2 0 4 5 4 10 0 6 -5 10 -11 10 -5 0
-7 -4 -4 -10z"/>
<path d="M3121 1024 c0 -11 3 -14 6 -6 3 7 2 16 -1 19 -3 4 -6 -2 -5 -13z"/>
<path d="M3143 1029 c3 -9 1 -21 -4 -26 -5 -5 -2 -20 6 -37 8 -15 12 -32 9
-37 -3 -5 1 -9 9 -9 17 0 16 38 -2 49 -6 4 -9 15 -6 24 4 9 1 24 -5 34 -9 14
-10 14 -7 2z"/>
<path d="M2200 1016 c0 -8 5 -18 10 -21 6 -3 10 1 10 9 0 8 -4 18 -10 21 -5 3
-10 -1 -10 -9z"/>
<path d="M2598 1008 c-3 -7 -1 -29 2 -49 4 -20 3 -45 -2 -54 -6 -9 -7 -19 -4
-22 12 -12 34 60 26 86 -4 14 -5 32 -3 39 3 6 0 12 -5 12 -6 0 -12 -6 -14 -12z"/>
<path d="M3027 1005 c3 -8 9 -12 14 -9 12 7 11 11 -5 17 -10 4 -13 1 -9 -8z"/>
<path d="M3333 950 c0 -41 2 -58 4 -37 2 20 2 54 0 75 -2 20 -4 3 -4 -38z"/>
<path d="M3887 991 c-8 -37 -2 -50 13 -35 5 5 6 22 2 39 l-8 30 -7 -34z"/>
<path d="M1424 1003 c-13 -4 -7 -43 6 -43 11 0 19 25 12 37 -4 5 -12 8 -18 6z"/>
<path d="M1819 998 c-1 -7 -1 -17 0 -21 2 -11 -32 -4 -41 8 -4 6 -7 -24 -6
-65 2 -71 2 -72 5 -17 3 46 7 58 18 53 8 -3 21 1 29 9 16 16 27 10 19 -11 -3
-8 0 -14 7 -14 6 0 9 -4 6 -9 -3 -5 1 -14 9 -21 7 -6 11 -19 8 -28 -6 -15 -5
-15 11 -3 13 11 14 16 4 22 -7 5 -13 14 -13 21 -1 19 -37 88 -47 88 -4 0 -9
-6 -9 -12z"/>
<path d="M2356 988 c-8 -42 -4 -138 5 -138 5 0 9 36 9 80 0 79 -6 102 -14 58z"/>
<path d="M1547 993 c-11 -11 -8 -65 3 -58 6 4 7 12 4 18 -4 7 -4 9 1 5 4 -4
15 -2 23 5 13 10 14 9 7 -3 -8 -13 -7 -13 10 0 17 14 17 15 -14 18 -17 2 -29
8 -26 13 7 10 1 12 -8 2z"/>
<path d="M2430 971 c0 -17 5 -33 12 -37 6 -4 8 -3 4 4 -3 6 -2 13 3 16 11 7 2
46 -10 46 -5 0 -9 -13 -9 -29z"/>
<path d="M3762 980 c0 -14 2 -19 5 -12 2 6 2 18 0 25 -3 6 -5 1 -5 -13z"/>
<path d="M1342 978 c-15 -15 -16 -38 -1 -38 5 0 8 4 5 9 -4 5 -1 11 5 13 7 2
10 10 8 16 -3 10 -7 10 -17 0z"/>
<path d="M2080 976 c0 -20 17 -29 26 -15 5 8 3 9 -6 4 -10 -6 -12 -4 -7 8 3
10 2 17 -3 17 -6 0 -10 -6 -10 -14z"/>
<path d="M2190 981 c0 -5 7 -11 15 -15 8 -3 15 -1 15 3 0 5 -7 11 -15 15 -8 3
-15 1 -15 -3z"/>
<path d="M1158 973 c7 -3 16 -2 19 1 4 3 -2 6 -13 5 -11 0 -14 -3 -6 -6z"/>
<path d="M3037 964 c3 -8 10 -13 15 -12 16 6 14 21 -4 24 -11 1 -15 -3 -11
-12z"/>
<path d="M1423 936 l-22 -24 27 3 c39 5 39 6 17 15 -17 7 -17 9 -2 9 9 1 17 6
17 11 0 17 -15 11 -37 -14z"/>
<path d="M1986 933 c1 -18 6 -27 15 -25 21 5 36 22 20 22 -8 0 -19 7 -25 16
-10 13 -11 11 -10 -13z"/>
<path d="M2193 905 c0 -47 1 -51 5 -20 4 36 6 38 12 15 7 -21 8 -19 9 15 0 27
-2 35 -8 26 -7 -11 -10 -10 -14 5 -2 10 -4 -8 -4 -41z"/>
<path d="M2946 944 c-8 -21 -7 -22 27 -28 15 -3 27 0 27 6 0 5 -7 8 -15 4 -13
-5 -20 5 -16 27 2 14 -17 7 -23 -9z"/>
<path d="M1630 948 c-1 -22 21 -58 32 -52 7 5 9 2 6 -8 -4 -8 -2 -21 3 -29 6
-10 8 -6 6 11 -2 22 -46 96 -47 78z"/>
<path d="M2301 943 c1 -4 -1 -16 -6 -26 -12 -28 -1 -29 12 -1 7 14 7 26 2 30
-5 3 -9 2 -8 -3z"/>
<path d="M1240 927 c0 -19 16 -31 24 -18 3 5 -1 14 -9 21 -12 10 -15 10 -15
-3z"/>
<path d="M2045 931 c-3 -6 -3 -11 2 -11 4 0 1 -5 -7 -10 -12 -8 -9 -9 12 -8
22 2 25 5 15 18 -6 8 -12 16 -13 18 -1 2 -5 -1 -9 -7z"/>
<path d="M2070 929 c0 -3 10 -9 21 -12 13 -4 20 -11 16 -20 -3 -7 1 -14 8 -14
10 0 11 5 5 17 -5 10 -6 21 -2 25 4 5 1 5 -5 1 -7 -4 -13 -3 -13 2 0 5 -7 9
-15 9 -8 0 -15 -4 -15 -8z"/>
<path d="M3040 930 c0 -5 -8 -7 -17 -3 -13 4 -11 1 4 -11 12 -9 26 -16 30 -15
20 3 24 -2 13 -16 -9 -11 -9 -15 -1 -15 7 0 9 -4 6 -10 -3 -5 0 -10 9 -10 14
0 13 7 -10 73 -7 18 -34 24 -34 7z"/>
<path d="M3673 932 c-8 -5 -9 -13 -3 -22 7 -12 10 -12 16 3 8 21 3 29 -13 19z"/>
<path d="M3887 918 c-9 -31 -2 -33 11 -3 6 14 8 25 3 25 -5 0 -11 -10 -14 -22z"/>
<path d="M1339 914 c-7 -8 -14 -27 -15 -42 -2 -22 -1 -24 7 -9 6 9 8 21 5 26
-5 8 16 23 36 25 16 2 15 12 -2 13 -10 1 -24 -5 -31 -13z"/>
<path d="M3758 913 c-3 -13 -4 -32 -1 -43 5 -17 13 -20 54 -19 27 1 49 6 49
11 0 5 -4 7 -9 3 -5 -3 -13 0 -16 5 -4 6 -19 10 -33 8 -23 -3 -28 2 -32 27 -5
28 -6 28 -12 8z"/>
<path d="M1537 913 c-12 -11 -8 -23 8 -23 8 0 15 7 15 15 0 16 -12 20 -23 8z"/>
<path d="M2440 911 c0 -6 5 -13 10 -16 6 -3 10 1 10 9 0 9 -4 16 -10 16 -5 0
-10 -4 -10 -9z"/>
<path d="M1458 904 c-12 -18 -2 -49 18 -52 12 -2 15 0 8 5 -7 4 -14 19 -16 33
-1 14 -6 20 -10 14z"/>
<path d="M2924 898 c-11 -17 6 -22 22 -7 13 14 13 16 -1 16 -9 0 -18 -4 -21
-9z"/>
<path d="M3172 886 c1 -15 7 -22 15 -19 9 4 10 10 2 24 -13 26 -19 24 -17 -5z"/>
<path d="M3523 890 c8 -14 22 -24 31 -22 10 2 14 -2 10 -12 -8 -21 61 -14 86
9 19 17 18 41 -1 29 -5 -3 -7 -9 -4 -14 3 -4 -2 -11 -11 -14 -9 -3 -12 -2 -9
5 5 7 -8 9 -37 7 -33 -2 -47 2 -62 17 -18 20 -18 20 -3 -5z"/>
<path d="M1971 884 c0 -11 3 -14 6 -6 3 7 2 16 -1 19 -3 4 -6 -2 -5 -13z"/>
<path d="M2681 878 c-1 -22 4 -28 19 -28 13 0 18 5 14 15 -4 8 -10 13 -14 10
-5 -3 -11 3 -13 12 -3 11 -5 8 -6 -9z"/>
<path d="M1228 883 c7 -3 16 -2 19 1 4 3 -2 6 -13 5 -11 0 -14 -3 -6 -6z"/>
<path d="M3350 881 c0 -5 12 -11 28 -14 15 -3 40 -9 56 -13 21 -5 27 -3 24 6
-2 7 -22 15 -43 17 -22 2 -46 5 -52 8 -7 2 -13 1 -13 -4z"/>
<path d="M1536 871 c-4 -7 -5 -15 -2 -18 9 -9 19 4 14 18 -4 11 -6 11 -12 0z"/>
<path d="M1890 865 c0 -8 5 -15 10 -15 6 0 10 7 10 15 0 8 -4 15 -10 15 -5 0
-10 -7 -10 -15z"/>
<path d="M2522 859 c-14 -22 -2 -25 29 -9 24 13 25 25 1 27 -10 1 -24 -7 -30
-18z"/>
<path d="M2725 870 c3 -5 19 -10 36 -10 16 0 29 5 29 10 0 6 -16 10 -36 10
-21 0 -33 -4 -29 -10z"/>
<path d="M2801 864 c0 -11 3 -14 6 -6 3 7 2 16 -1 19 -3 4 -6 -2 -5 -13z"/>
<path d="M2115 860 c-3 -5 -1 -10 4 -10 6 0 11 5 11 10 0 6 -2 10 -4 10 -3 0
-8 -4 -11 -10z"/>
<path d="M2490 859 c0 -5 5 -7 10 -4 6 3 10 8 10 11 0 2 -4 4 -10 4 -5 0 -10
-5 -10 -11z"/>
<path d="M3149 642 c5 -34 6 -35 9 -8 2 16 0 32 -5 37 -5 5 -7 -7 -4 -29z"/>
<path d="M2553 635 c0 -22 2 -30 4 -17 2 12 2 30 0 40 -3 9 -5 -1 -4 -23z"/>
<path d="M1252 625 c0 -16 2 -22 5 -12 2 9 2 23 0 30 -3 6 -5 -1 -5 -18z"/>
<path d="M2421 634 c0 -11 3 -14 6 -6 3 7 2 16 -1 19 -3 4 -6 -2 -5 -13z"/>
<path d="M1458 633 c6 -2 18 -2 25 0 6 3 1 5 -13 5 -14 0 -19 -2 -12 -5z"/>
<path d="M3021 614 c0 -11 3 -14 6 -6 3 7 2 16 -1 19 -3 4 -6 -2 -5 -13z"/>
<path d="M1332 594 c10 -10 20 -16 22 -13 3 3 -5 11 -17 18 -21 13 -21 12 -5
-5z"/>
<path d="M1688 588 c5 -5 16 -8 23 -6 8 3 3 7 -10 11 -17 4 -21 3 -13 -5z"/>
</g>
</svg>
